HIERARCHY
ROOT Hips
{
	OFFSET 0.000000 94.000000 0.000011
	CHANNELS 6 Xposition Yposition Zposition Yrotation Xrotation Zrotation
	JOINT Spine
	{
		OFFSET 0.000000 12.994698 0.000002
		CHANNELS 6 Xposition Yposition Zposition Yrotation Xrotation Zrotation
		JOINT Spine1
		{
			OFFSET 0.000000 12.709900 0.000002
			CHANNELS 6 Xposition Yposition Zposition Yrotation Xrotation Zrotation
			JOINT Spine2
			{
				OFFSET 0.000000 12.782906 0.000002
				CHANNELS 6 Xposition Yposition Zposition Yrotation Xrotation Zrotation
				JOINT LeftShoulder
				{
					OFFSET 7.040100 10.435104 1.914701
					CHANNELS 6 Xposition Yposition Zposition Yrotation Xrotation Zrotation
					JOINT LeftArm
					{
						OFFSET 0.000000 13.459900 0.000002
						CHANNELS 6 Xposition Yposition Zposition Yrotation Xrotation Zrotation
						JOINT LeftForeArm
						{
							OFFSET -0.000100 26.100006 0.000003
							CHANNELS 6 Xposition Yposition Zposition Yrotation Xrotation Zrotation
							JOINT LeftHand
							{
								OFFSET 0.000000 28.900101 0.000003
								CHANNELS 6 Xposition Yposition Zposition Yrotation Xrotation Zrotation
								JOINT LeftHandIndex1
								{
									OFFSET -2.561200 8.073898 0.103001
									CHANNELS 6 Xposition Yposition Zposition Yrotation Xrotation Zrotation
									JOINT LeftHandIndex2
									{
										OFFSET 0.000000 4.580505 0.000000
										CHANNELS 6 Xposition Yposition Zposition Yrotation Xrotation Zrotation
										JOINT LeftHandIndex3
										{
											OFFSET 0.000000 2.817993 0.000000
											CHANNELS 6 Xposition Yposition Zposition Yrotation Xrotation Zrotation
											End Site
											{
												OFFSET 0.000000 1.356598 0.000000
											}
										}
									}
								}
								JOINT LeftHandMiddle1
								{
									OFFSET -0.545000 8.136505 0.103001
									CHANNELS 6 Xposition Yposition Zposition Yrotation Xrotation Zrotation
									JOINT LeftHandMiddle2
									{
										OFFSET 0.000000 4.702408 0.000000
										CHANNELS 6 Xposition Yposition Zposition Yrotation Xrotation Zrotation
										JOINT LeftHandMiddle3
										{
											OFFSET 0.000000 3.101593 0.000000
											CHANNELS 6 Xposition Yposition Zposition Yrotation Xrotation Zrotation
											End Site
											{
												OFFSET 0.000000 1.499100 0.000000
											}
										}
									}
								}
								JOINT LeftHandPinky1
								{
									OFFSET 3.136800 7.018097 0.103101
									CHANNELS 6 Xposition Yposition Zposition Yrotation Xrotation Zrotation
									JOINT LeftHandPinky2
									{
										OFFSET 0.000000 3.554001 0.000000
										CHANNELS 6 Xposition Yposition Zposition Yrotation Xrotation Zrotation
										JOINT LeftHandPinky3
										{
											OFFSET 0.000000 2.233902 0.000000
											CHANNELS 6 Xposition Yposition Zposition Yrotation Xrotation Zrotation
											End Site
											{
												OFFSET 0.000000 1.120499 0.000000
											}
										}
									}
								}
								JOINT LeftHandRing1
								{
									OFFSET 1.440500 7.806702 0.103101
									CHANNELS 6 Xposition Yposition Zposition Yrotation Xrotation Zrotation
									JOINT LeftHandRing2
									{
										OFFSET 0.000000 4.392197 0.000000
										CHANNELS 6 Xposition Yposition Zposition Yrotation Xrotation Zrotation
										JOINT LeftHandRing3
										{
											OFFSET 0.000000 2.832703 0.000000
											CHANNELS 6 Xposition Yposition Zposition Yrotation Xrotation Zrotation
											End Site
											{
												OFFSET 0.000000 1.350006 0.000000
											}
										}
									}
								}
								JOINT LeftHandThumb1
								{
									OFFSET -2.786300 2.078995 0.094600
									CHANNELS 6 Xposition Yposition Zposition Yrotation Xrotation Zrotation
									JOINT LeftHandThumb2
									{
										OFFSET 0.000000 3.961899 0.000000
										CHANNELS 6 Xposition Yposition Zposition Yrotation Xrotation Zrotation
										JOINT LeftHandThumb3
										{
											OFFSET 0.000000 3.007095 0.000000
											CHANNELS 6 Xposition Yposition Zposition Yrotation Xrotation Zrotation
											End Site
											{
												OFFSET 0.000000 1.729507 0.000000
											}
										}
									}
								}
							}
						}
					}
				}
				JOINT Neck
				{
					OFFSET 0.000000 18.209305 0.000002
					CHANNELS 6 Xposition Yposition Zposition Yrotation Xrotation Zrotation
					JOINT Head
					{
						OFFSET 0.000000 11.033493 0.000001
						CHANNELS 6 Xposition Yposition Zposition Yrotation Xrotation Zrotation
						End Site
						{
							OFFSET 0.000000 8.022003 0.000001
						}
					}
				}
				JOINT RightShoulder
				{
					OFFSET -7.040100 10.435104 1.914701
					CHANNELS 6 Xposition Yposition Zposition Yrotation Xrotation Zrotation
					JOINT RightArm
					{
						OFFSET 0.000000 13.459900 0.000002
						CHANNELS 6 Xposition Yposition Zposition Yrotation Xrotation Zrotation
						JOINT RightForeArm
						{
							OFFSET 0.000000 26.100098 0.000003
							CHANNELS 6 Xposition Yposition Zposition Yrotation Xrotation Zrotation
							JOINT RightHand
							{
								OFFSET -0.000100 28.900101 -0.000097
								CHANNELS 6 Xposition Yposition Zposition Yrotation Xrotation Zrotation
								JOINT RightHandIndex1
								{
									OFFSET 2.561100 8.074005 0.103001
									CHANNELS 6 Xposition Yposition Zposition Yrotation Xrotation Zrotation
									JOINT RightHandIndex2
									{
										OFFSET 0.000000 4.580505 -0.000099
										CHANNELS 6 Xposition Yposition Zposition Yrotation Xrotation Zrotation
										JOINT RightHandIndex3
										{
											OFFSET 0.000000 2.817993 0.000000
											CHANNELS 6 Xposition Yposition Zposition Yrotation Xrotation Zrotation
											End Site
											{
												OFFSET 0.000000 1.356598 0.000000
											}
										}
									}
								}
								JOINT RightHandMiddle1
								{
									OFFSET 0.545000 8.136597 0.103001
									CHANNELS 6 Xposition Yposition Zposition Yrotation Xrotation Zrotation
									JOINT RightHandMiddle2
									{
										OFFSET 0.000000 4.702408 -0.000099
										CHANNELS 6 Xposition Yposition Zposition Yrotation Xrotation Zrotation
										JOINT RightHandMiddle3
										{
											OFFSET 0.000000 3.101593 0.000000
											CHANNELS 6 Xposition Yposition Zposition Yrotation Xrotation Zrotation
											End Site
											{
												OFFSET 0.000000 1.499100 0.000000
											}
										}
									}
								}
								JOINT RightHandPinky1
								{
									OFFSET -3.136800 7.018097 0.103001
									CHANNELS 6 Xposition Yposition Zposition Yrotation Xrotation Zrotation
									JOINT RightHandPinky2
									{
										OFFSET 0.000000 3.554092 -0.000099
										CHANNELS 6 Xposition Yposition Zposition Yrotation Xrotation Zrotation
										JOINT RightHandPinky3
										{
											OFFSET 0.000000 2.233994 0.000000
											CHANNELS 6 Xposition Yposition Zposition Yrotation Xrotation Zrotation
											End Site
											{
												OFFSET 0.000000 1.120499 0.000000
											}
										}
									}
								}
								JOINT RightHandRing1
								{
									OFFSET -1.440500 7.806793 0.103001
									CHANNELS 6 Xposition Yposition Zposition Yrotation Xrotation Zrotation
									JOINT RightHandRing2
									{
										OFFSET 0.000000 4.392303 -0.000099
										CHANNELS 6 Xposition Yposition Zposition Yrotation Xrotation Zrotation
										JOINT RightHandRing3
										{
											OFFSET 0.000000 2.832703 0.000000
											CHANNELS 6 Xposition Yposition Zposition Yrotation Xrotation Zrotation
											End Site
											{
												OFFSET 0.000000 1.350006 0.000000
											}
										}
									}
								}
								JOINT RightHandThumb1
								{
									OFFSET 2.786300 2.079102 0.094500
									CHANNELS 6 Xposition Yposition Zposition Yrotation Xrotation Zrotation
									JOINT RightHandThumb2
									{
										OFFSET 0.000000 3.962006 -0.000099
										CHANNELS 6 Xposition Yposition Zposition Yrotation Xrotation Zrotation
										JOINT RightHandThumb3
										{
											OFFSET 0.000000 3.007202 -0.000099
											CHANNELS 6 Xposition Yposition Zposition Yrotation Xrotation Zrotation
											End Site
											{
												OFFSET 0.000000 1.729507 0.000000
											}
										}
									}
								}
							}
						}
					}
				}
			}
		}
	}
	JOINT LeftUpLeg
	{
		OFFSET 8.100000 0.000000 0.000000
		CHANNELS 6 Xposition Yposition Zposition Yrotation Xrotation Zrotation
		JOINT LeftLeg
		{
			OFFSET 0.000000 43.199997 0.000005
			CHANNELS 6 Xposition Yposition Zposition Yrotation Xrotation Zrotation
			JOINT LeftFoot
			{
				OFFSET 0.000000 43.300003 0.000005
				CHANNELS 6 Xposition Yposition Zposition Yrotation Xrotation Zrotation
				JOINT LeftToeBase
				{
					OFFSET 0.000000 14.572693 0.000002
					CHANNELS 6 Xposition Yposition Zposition Yrotation Xrotation Zrotation
					End Site
					{
						OFFSET 0.000000 3.500000 0.000000
					}
				}
			}
		}
	}
	JOINT RightUpLeg
	{
		OFFSET -8.100000 0.000000 0.000000
		CHANNELS 6 Xposition Yposition Zposition Yrotation Xrotation Zrotation
		JOINT RightLeg
		{
			OFFSET 0.000000 43.199997 0.000005
			CHANNELS 6 Xposition Yposition Zposition Yrotation Xrotation Zrotation
			JOINT RightFoot
			{
				OFFSET 0.000000 43.300003 0.000005
				CHANNELS 6 Xposition Yposition Zposition Yrotation Xrotation Zrotation
				JOINT RightToeBase
				{
					OFFSET 0.000000 14.572693 0.000002
					CHANNELS 6 Xposition Yposition Zposition Yrotation Xrotation Zrotation
					End Site
					{
						OFFSET 0.000000 3.500000 0.000000
					}
				}
			}
		}
	}
}
MOTION
Frames: 4
Frame Time: 0.010000
-5.096200 95.643700 3.463411 11.682849 -4.318460 1.624559 0.000000 12.994698 0.000002 -0.000000 0.000001 0.000000 0.000000 12.709892 0.000001 -0.000000 0.000001 0.000000 -0.000000 12.782921 0.000002 -22.830901 -0.000001 -0.000003 7.040100 10.435073 1.914700 0.000000 89.999989 -90.000003 0.000003 13.459898 0.000016 -7.760887 78.624698 -11.791480 -0.000100 26.100023 0.000007 0.154699 5.086496 3.494899 -0.000000 28.900085 -0.000004 -0.000000 0.000000 0.000000 -2.561196 8.073894 0.103003 4.455598 17.500797 8.688299 -0.000005 4.580468 0.000004 -0.000000 17.999992 -0.000000 0.000000 2.818016 -0.000008 -0.000000 17.998691 -0.000800 -0.545000 8.136542 0.103009 -0.000001 17.999596 5.400100 -0.000001 4.702382 0.000018 0.000002 18.000096 -0.000000 -0.000000 3.101627 0.000004 0.000101 17.999995 0.000100 3.136805 7.018136 0.103114 -22.769095 18.002393 -13.293800 0.000001 3.554005 -0.000002 -0.000300 17.999394 0.000400 0.000001 2.233887 0.000001 0.000000 18.000395 -0.000600 1.440503 7.806728 0.103099 -11.405899 19.284897 -1.936600 0.000002 4.392220 0.000000 0.000000 17.999990 0.000000 -0.000001 2.832699 -0.000009 -0.000000 17.998996 -0.000100 -2.786304 2.079016 0.094596 59.081293 -12.433402 28.170801 0.000003 3.961917 0.000000 -0.354597 6.351299 -6.390000 0.000000 3.007089 0.000002 -0.355000 6.350897 -6.390099 0.000000 18.209290 0.000002 0.000001 0.000000 -0.000000 0.000000 11.033500 -0.000001 20.304400 -20.825498 -5.911299 -7.040099 10.435089 1.914700 0.000000 89.999989 89.999893 0.000004 13.459904 -0.000018 114.282295 111.624108 103.534801 -0.000000 26.100130 -0.000000 -0.304999 1.635500 -17.947799 -0.000104 28.900070 -0.000097 0.000001 0.000000 0.000003 2.561099 8.074001 0.102999 -4.455800 17.500697 -8.688096 0.000005 4.580484 -0.000102 0.000003 17.999992 -0.000002 0.000006 2.817977 0.000006 0.000003 17.999389 0.000197 0.545002 8.136604 0.103000 -0.000100 17.999895 -5.399899 0.000002 4.702432 -0.000079 0.000001 17.999992 0.000002 0.000007 3.101618 0.000021 -0.000001 17.999990 -0.000003 -3.136801 7.018102 0.103000 22.769301 18.002596 13.293904 -0.000002 3.554122 -0.000089 -0.000001 17.998897 0.000097 -0.000002 2.234026 0.000002 -0.000001 17.999195 0.000200 -1.440498 7.806788 0.102994 11.405697 19.284899 1.936705 0.000000 4.392313 -0.000095 -0.000000 17.999994 0.000000 0.000003 2.832742 -0.000008 0.000000 17.999097 -0.000002 2.786299 2.079082 0.094498 -59.081300 -12.433297 -28.170400 0.000003 3.962019 -0.000091 0.354799 6.350598 6.389698 -0.000002 3.007214 -0.000103 0.354898 6.350797 6.390199 8.100000 -0.000012 -0.000001 2.548901 5.367014 -173.138807 -0.000001 43.200012 0.000005 0.010601 -0.000000 0.000000 -0.000001 43.299992 0.000004 -2.988202 60.821202 -3.599699 0.000000 14.572696 0.000002 0.000001 25.078793 1.389501 -8.099999 0.000000 -0.000001 -7.427201 1.713213 179.197881 -0.000000 43.199997 0.000003 0.003100 -13.112596 -0.097500 -0.000001 43.300007 0.000019 2.285998 68.318796 2.585100 0.000000 14.572708 -0.000004 -0.000000 35.246290 0.483600 
-5.049900 95.662201 3.358411 11.782274 -4.299334 1.611387 -0.000000 12.994690 0.000002 0.000001 0.000000 -0.000000 -0.000000 12.709900 0.000002 0.000001 0.000000 -0.000000 -0.000000 12.782890 0.000002 -22.728399 -0.000000 -0.000003 7.040100 10.435087 1.914698 0.000000 89.999989 -90.000003 0.000001 13.459888 0.000012 -10.348375 78.465603 -14.441873 -0.000102 26.100018 0.000006 0.114499 4.271799 3.082598 0.000001 28.900085 0.000006 -0.000001 0.000000 0.000000 -2.561196 8.073894 0.103003 4.455598 17.500797 8.688299 -0.000000 4.580499 -0.000003 -0.000000 17.999990 0.000001 0.000001 2.818016 -0.000008 0.000001 17.998693 -0.000799 -0.544999 8.136542 0.103016 -0.000001 17.999594 5.400099 0.000002 4.702382 0.000011 0.000001 18.000096 -0.000001 -0.000005 3.101597 0.000004 0.000101 17.999992 0.000100 3.136802 7.018121 0.103115 -22.769095 18.002391 -13.293799 0.000002 3.554003 0.000000 -0.000301 17.999391 0.000301 0.000001 2.233917 -0.000012 -0.000101 18.000390 -0.000600 1.440503 7.806713 0.103099 -11.405899 19.284896 -1.936600 0.000002 4.392205 0.000000 -0.000000 17.999992 -0.000000 0.000001 2.832730 -0.000001 0.000000 17.998995 -0.000100 -2.786308 2.079031 0.094598 59.081191 -12.433404 28.170799 0.000001 3.961917 0.000002 -0.354600 6.351299 -6.389999 0.000002 3.007104 0.000006 -0.355001 6.350896 -6.390100 0.000001 18.209290 -0.000001 0.000001 -0.000000 -0.000000 0.000000 11.033500 -0.000001 20.132503 -20.827801 -5.827499 -7.040099 10.435088 1.914699 0.000000 89.999989 89.999893 0.000000 13.459906 -0.000005 115.023910 110.299495 104.250803 -0.000001 26.100126 -0.000000 -0.214697 1.198600 -17.255894 -0.000086 28.900070 -0.000094 0.000000 -0.000000 -0.000000 2.561111 8.074017 0.103008 -4.455800 17.500695 -8.688101 0.000004 4.580484 -0.000102 0.000003 17.999989 0.000002 0.000010 2.817992 -0.000001 -0.000001 17.999386 0.000201 0.545010 8.136604 0.103001 -0.000097 17.999893 -5.399900 0.000003 4.702447 -0.000087 0.000001 17.999985 0.000001 -0.000007 3.101617 0.000013 -0.000001 17.999985 0.000004 -3.136798 7.018118 0.103008 22.769300 18.002598 13.293897 0.000004 3.554106 -0.000096 0.000000 17.998899 0.000099 -0.000000 2.233995 0.000002 -0.000000 17.999195 0.000200 -1.440498 7.806805 0.103003 11.405696 19.284897 1.936695 0.000001 4.392328 -0.000087 -0.000001 17.999997 -0.000001 0.000001 2.832738 0.000006 -0.000001 17.999191 0.000003 2.786306 2.079098 0.094493 -59.081293 -12.433302 -28.170398 -0.000005 3.962004 -0.000106 0.354800 6.350598 6.389697 -0.000002 3.007214 -0.000095 0.354899 6.350798 6.390196 8.100000 -0.000005 0.000001 2.621000 5.256914 -173.174406 0.000001 43.199997 0.000005 0.010501 0.000100 0.000000 0.000000 43.299995 0.000021 -2.985599 60.789093 -3.596098 -0.000000 14.572703 0.000012 0.000000 25.081795 1.383397 -8.100000 -0.000013 0.000001 -7.373700 1.751012 179.180983 0.000002 43.200012 0.000004 0.002600 -12.887898 -0.095200 -0.000000 43.300003 0.000023 2.308800 68.221002 2.613000 -0.000001 14.572704 0.000001 0.000000 35.188096 0.481700 
-5.003500 95.678001 3.260911 11.881689 -4.280189 1.598320 0.000001 12.994698 -0.000000 -0.000001 0.000000 0.000000 0.000000 12.709908 0.000000 -0.000001 0.000000 0.000000 0.000001 12.782906 0.000002 -22.625396 0.000000 -0.000003 7.040101 10.435104 1.914701 0.000000 89.999989 -89.999996 0.000001 13.459915 0.000011 -11.880070 78.340303 -16.056067 -0.000101 26.100002 0.000002 0.080899 3.440898 2.706798 0.000000 28.900085 -0.000003 -0.000001 -0.000002 0.000001 -2.561200 8.073909 0.103003 4.455597 17.500799 8.688299 -0.000001 4.580499 0.000004 0.000001 17.999992 0.000001 0.000002 2.818001 -0.000008 0.000001 17.998691 -0.000800 -0.545002 8.136527 0.103009 -0.000002 17.999596 5.400100 0.000001 4.702397 0.000018 0.000001 18.000098 -0.000000 -0.000000 3.101627 0.000012 0.000101 17.999999 0.000100 3.136802 7.018136 0.103107 -22.769095 18.002393 -13.293800 0.000001 3.554018 0.000000 -0.000300 17.999393 0.000300 -0.000000 2.233887 -0.000011 -0.000100 18.000393 -0.000600 1.440500 7.806697 0.103100 -11.405899 19.284897 -1.936600 -0.000001 4.392220 0.000000 -0.000000 17.999992 -0.000000 0.000001 2.832715 -0.000008 0.000000 17.998991 -0.000100 -2.786312 2.079016 0.094596 59.081293 -12.433406 28.170801 0.000005 3.961917 -0.000006 -0.354601 6.351299 -6.389998 -0.000000 3.007089 -0.000000 -0.355001 6.350899 -6.390099 -0.000000 18.209305 0.000002 -0.000000 -0.000000 0.000000 -0.000001 11.033500 0.000003 19.960297 -20.830098 -5.743797 -7.040099 10.435088 1.914700 0.000000 89.999989 89.999893 0.000005 13.459892 0.000026 115.727215 109.150296 104.936895 -0.000006 26.100121 0.000001 -0.117999 0.686101 -16.592693 -0.000104 28.900085 -0.000103 -0.000000 -0.000001 -0.000003 2.561107 8.074017 0.103007 -4.455799 17.500697 -8.688099 0.000010 4.580484 -0.000103 0.000000 17.999994 -0.000003 -0.000000 2.817962 -0.000001 -0.000003 17.999387 0.000198 0.545007 8.136604 0.103001 -0.000100 17.999891 -5.399898 -0.000003 4.702432 -0.000087 0.000003 17.999987 0.000001 0.000004 3.101617 0.000020 -0.000001 17.999985 0.000002 -3.136795 7.018118 0.103000 22.769301 18.002598 13.293900 0.000001 3.554106 -0.000096 0.000001 17.998901 0.000097 -0.000000 2.234022 0.000006 -0.000098 17.999295 0.000202 -1.440496 7.806789 0.102995 11.405697 19.284897 1.936698 -0.000007 4.392297 -0.000102 -0.000001 17.999999 -0.000001 0.000001 2.832723 -0.000009 0.000000 17.999196 -0.000002 2.786299 2.079098 0.094487 -59.081293 -12.433305 -28.170398 0.000003 3.962035 -0.000097 0.354799 6.350598 6.389700 -0.000003 3.007214 -0.000097 0.354898 6.350796 6.390196 8.100001 -0.000008 -0.000001 2.694199 5.151813 -173.209103 0.000001 43.200012 0.000005 0.010499 0.000100 -0.000002 0.000001 43.300007 0.000005 -2.985200 60.761793 -3.595001 -0.000001 14.572727 -0.000001 0.000000 25.084792 1.377300 -8.100000 0.000007 -0.000002 -7.321301 1.788613 179.163990 -0.000000 43.199997 0.000002 0.002101 -12.674399 -0.093000 0.000001 43.299992 0.000016 2.331000 68.133999 2.640300 0.000001 14.572694 -0.000000 -0.000000 35.129787 0.479600 
-4.957100 95.691299 3.170411 11.980999 -4.261029 1.585267 -0.000000 12.994705 0.000002 -0.000001 0.000001 -0.000000 -0.000000 12.709900 0.000001 -0.000001 0.000001 -0.000000 0.000000 12.782906 0.000002 -22.521898 -0.000000 -0.000003 7.040101 10.435103 1.914701 0.000000 89.999989 -89.999996 -0.000001 13.459906 0.000008 -13.077770 78.224203 -17.341773 -0.000100 26.100056 0.000000 0.053199 2.604699 2.352399 -0.000001 28.900101 0.000002 -0.000001 0.000001 0.000000 -2.561196 8.073909 0.103010 4.455600 17.500799 8.688299 -0.000001 4.580513 -0.000003 -0.000001 17.999992 0.000000 0.000000 2.818016 -0.000001 -0.000000 17.998691 -0.000799 -0.545002 8.136542 0.103009 0.000000 17.999598 5.400100 0.000001 4.702382 0.000011 0.000001 18.000096 -0.000000 -0.000002 3.101612 0.000004 0.000101 17.999995 0.000100 3.136802 7.018137 0.103114 -22.769095 18.002391 -13.293797 0.000001 3.554020 -0.000002 -0.000299 17.999389 0.000400 0.000001 2.233902 -0.000004 -0.000100 18.000393 -0.000600 1.440502 7.806728 0.103099 -11.405899 19.284899 -1.936600 0.000000 4.392220 0.000000 -0.000000 17.999994 0.000000 -0.000000 2.832715 -0.000001 0.000000 17.998993 -0.000100 -2.786312 2.079000 0.094600 59.081300 -12.433404 28.170798 0.000005 3.961917 0.000000 -0.354598 6.351296 -6.389998 0.000004 3.007120 0.000002 -0.355002 6.350899 -6.390100 -0.000000 18.209305 0.000002 -0.000000 0.000000 -0.000000 0.000000 11.033484 -0.000001 19.787598 -20.832502 -5.660199 -7.040099 10.435119 1.914701 0.000000 89.999989 89.999886 0.000002 13.459899 0.000018 116.386109 108.152699 105.586002 -0.000002 26.100126 0.000004 -0.018397 0.111600 -15.954396 -0.000102 28.900070 -0.000098 -0.000001 -0.000000 -0.000003 2.561109 8.074032 0.103007 -4.455799 17.500695 -8.688100 0.000001 4.580514 -0.000103 0.000000 17.999994 -0.000004 -0.000000 2.817992 -0.000009 0.000000 17.999391 0.000199 0.545008 8.136621 0.103012 0.000003 17.999895 -5.399903 -0.000004 4.702448 -0.000087 0.000000 17.999987 -0.000001 -0.000005 3.101602 0.000021 -0.000002 17.999985 0.000004 -3.136792 7.018134 0.103008 22.769305 18.002601 13.293895 0.000003 3.554122 -0.000089 0.000002 17.998896 0.000097 0.000002 2.234008 -0.000001 -0.000099 17.999299 0.000198 -1.440490 7.806820 0.103010 11.405702 19.284899 1.936694 0.000001 4.392297 -0.000095 0.000000 17.999992 0.000001 0.000003 2.832739 -0.000001 0.000002 17.999191 -0.000000 2.786314 2.079113 0.094494 -59.081293 -12.433302 -28.170401 -0.000001 3.962020 -0.000097 0.354797 6.350597 6.389697 -0.000003 3.007214 -0.000093 0.354901 6.350798 6.390196 8.100000 0.000001 -0.000000 2.768801 5.051414 -173.242803 -0.000001 43.199997 0.000005 0.010400 -0.000000 -0.000001 0.000002 43.300003 0.000006 -2.987097 60.739192 -3.596598 0.000001 14.572692 0.000011 -0.000001 25.087792 1.371097 -8.100000 0.000014 -0.000001 -7.269700 1.825713 179.147283 0.000000 43.200020 0.000002 0.001701 -12.471598 -0.090900 -0.000002 43.300007 0.000019 2.352498 68.057193 2.666500 -0.000000 14.572696 -0.000002 -0.000000 35.071990 0.477400 
